<svg id="visual" viewBox="0 0 1024 400" width="1024" height="400" xmlns="http://www.w3.org/2000/svg" xmlns:xlink="http://www.w3.org/1999/xlink" version="1.1"><rect x="0" y="0" width="1024" height="400" fill="#E6E6FA"></rect><defs><linearGradient id="grad1_0" x1="60.9%" y1="0%" x2="100%" y2="100%"><stop offset="-1.1999999999999993%" stop-color="#e6e6fa" stop-opacity="1"></stop><stop offset="101.2%" stop-color="#e6e6fa" stop-opacity="1"></stop></linearGradient></defs><defs><linearGradient id="grad2_0" x1="0%" y1="0%" x2="39.1%" y2="100%"><stop offset="-1.1999999999999993%" stop-color="#e6e6fa" stop-opacity="1"></stop><stop offset="101.2%" stop-color="#e6e6fa" stop-opacity="1"></stop></linearGradient></defs><g transform="translate(1024, 0)"><path d="M0 180C-25.9 180 -51.8 179.9 -68.9 166.3C-86 152.7 -94.3 125.4 -106.8 106.8C-119.2 88.1 -135.8 78 -148.7 61.6C-161.6 45.2 -170.8 22.6 -180 0L0 0Z" fill="#303FA1"></path></g><g transform="translate(0, 400)"><path d="M0 -180C24.1 -178.4 48.3 -176.8 68.9 -166.3C89.5 -155.8 106.5 -136.3 116.7 -116.7C126.8 -97 130.1 -77.3 139.5 -57.8C148.9 -38.3 164.5 -19.2 180 0L0 0Z" fill="#303FA1"></path></g></svg>