<svg id="visual" viewBox="0 0 960 540" width="960" height="540" xmlns="http://www.w3.org/2000/svg" xmlns:xlink="http://www.w3.org/1999/xlink" version="1.1"><path d="M0 206L17.8 196.5C35.7 187 71.3 168 106.8 158.8C142.3 149.7 177.7 150.3 213.2 155.2C248.7 160 284.3 169 320 167.7C355.7 166.3 391.3 154.7 426.8 162C462.3 169.3 497.7 195.7 533.2 205C568.7 214.3 604.3 206.7 640 203C675.7 199.3 711.3 199.7 746.8 197.3C782.3 195 817.7 190 853.2 186.8C888.7 183.7 924.3 182.3 942.2 181.7L960 181L960 0L942.2 0C924.3 0 888.7 0 853.2 0C817.7 0 782.3 0 746.8 0C711.3 0 675.7 0 640 0C604.3 0 568.7 0 533.2 0C497.7 0 462.3 0 426.8 0C391.3 0 355.7 0 320 0C284.3 0 248.7 0 213.2 0C177.7 0 142.3 0 106.8 0C71.3 0 35.7 0 17.8 0L0 0Z" fill="#e6e6fa"></path><path d="M0 172L17.8 163.8C35.7 155.7 71.3 139.3 106.8 140.3C142.3 141.3 177.7 159.7 213.2 159.8C248.7 160 284.3 142 320 133.8C355.7 125.7 391.3 127.3 426.8 133.5C462.3 139.7 497.7 150.3 533.2 155.8C568.7 161.3 604.3 161.7 640 155.8C675.7 150 711.3 138 746.8 135.3C782.3 132.7 817.7 139.3 853.2 146.2C888.7 153 924.3 160 942.2 163.5L960 167L960 0L942.2 0C924.3 0 888.7 0 853.2 0C817.7 0 782.3 0 746.8 0C711.3 0 675.7 0 640 0C604.3 0 568.7 0 533.2 0C497.7 0 462.3 0 426.8 0C391.3 0 355.7 0 320 0C284.3 0 248.7 0 213.2 0C177.7 0 142.3 0 106.8 0C71.3 0 35.7 0 17.8 0L0 0Z" fill="#babae5"></path><path d="M0 122L17.8 125.7C35.7 129.3 71.3 136.7 106.8 140.2C142.3 143.7 177.7 143.3 213.2 134.2C248.7 125 284.3 107 320 98.2C355.7 89.3 391.3 89.7 426.8 95.2C462.3 100.7 497.7 111.3 533.2 116.7C568.7 122 604.3 122 640 120.5C675.7 119 711.3 116 746.8 119.7C782.3 123.3 817.7 133.7 853.2 133.8C888.7 134 924.3 124 942.2 119L960 114L960 0L942.2 0C924.3 0 888.7 0 853.2 0C817.7 0 782.3 0 746.8 0C711.3 0 675.7 0 640 0C604.3 0 568.7 0 533.2 0C497.7 0 462.3 0 426.8 0C391.3 0 355.7 0 320 0C284.3 0 248.7 0 213.2 0C177.7 0 142.3 0 106.8 0C71.3 0 35.7 0 17.8 0L0 0Z" fill="#8f8fcf"></path><path d="M0 92L17.8 87.5C35.7 83 71.3 74 106.8 73C142.3 72 177.7 79 213.2 77.7C248.7 76.3 284.3 66.7 320 67C355.7 67.3 391.3 77.7 426.8 81.8C462.3 86 497.7 84 533.2 82.8C568.7 81.7 604.3 81.3 640 81.7C675.7 82 711.3 83 746.8 86.3C782.3 89.7 817.7 95.3 853.2 94.5C888.7 93.7 924.3 86.3 942.2 82.7L960 79L960 0L942.2 0C924.3 0 888.7 0 853.2 0C817.7 0 782.3 0 746.8 0C711.3 0 675.7 0 640 0C604.3 0 568.7 0 533.2 0C497.7 0 462.3 0 426.8 0C391.3 0 355.7 0 320 0C284.3 0 248.7 0 213.2 0C177.7 0 142.3 0 106.8 0C71.3 0 35.7 0 17.8 0L0 0Z" fill="#6366b8"></path><path d="M0 34L17.8 34.3C35.7 34.7 71.3 35.3 106.8 38.2C142.3 41 177.7 46 213.2 50.2C248.7 54.3 284.3 57.7 320 53.3C355.7 49 391.3 37 426.8 37.3C462.3 37.7 497.7 50.3 533.2 52.2C568.7 54 604.3 45 640 44.3C675.7 43.7 711.3 51.3 746.8 56.2C782.3 61 817.7 63 853.2 61.7C888.7 60.3 924.3 55.7 942.2 53.3L960 51L960 0L942.2 0C924.3 0 888.7 0 853.2 0C817.7 0 782.3 0 746.8 0C711.3 0 675.7 0 640 0C604.3 0 568.7 0 533.2 0C497.7 0 462.3 0 426.8 0C391.3 0 355.7 0 320 0C284.3 0 248.7 0 213.2 0C177.7 0 142.3 0 106.8 0C71.3 0 35.7 0 17.8 0L0 0Z" fill="#303fa1"></path></svg>