<svg id="visual" viewBox="0 0 900 450" width="900" height="450" xmlns="http://www.w3.org/2000/svg" xmlns:xlink="http://www.w3.org/1999/xlink" version="1.1"><rect x="0" y="0" width="900" height="450" fill="#303FA1"></rect><defs><linearGradient id="grad1_0" x1="50%" y1="0%" x2="100%" y2="100%"><stop offset="10%" stop-color="#303fa1" stop-opacity="1"></stop><stop offset="90%" stop-color="#303fa1" stop-opacity="1"></stop></linearGradient></defs><defs><linearGradient id="grad2_0" x1="0%" y1="0%" x2="50%" y2="100%"><stop offset="10%" stop-color="#303fa1" stop-opacity="1"></stop><stop offset="90%" stop-color="#303fa1" stop-opacity="1"></stop></linearGradient></defs><g transform="translate(900, 0)"><path d="M0 337.5C-55.2 322.6 -110.4 307.7 -162.5 281.5C-214.6 255.2 -263.6 217.6 -292.3 168.8C-320.9 119.9 -329.2 60 -337.5 0L0 0Z" fill="#E6E6FA"></path></g><g transform="translate(0, 450)"><path d="M0 -337.5C52.5 -318 105.1 -298.5 157.5 -272.8C209.9 -247.1 262.3 -215.2 292.3 -168.8C322.3 -122.3 329.9 -61.1 337.5 0L0 0Z" fill="#E6E6FA"></path></g></svg>