<svg id="visual" viewBox="0 0 1024 400" width="1024" height="400" xmlns="http://www.w3.org/2000/svg" xmlns:xlink="http://www.w3.org/1999/xlink" version="1.1"><g><g transform="translate(488 175)"><path d="M0 -49.7L43.1 -24.9L43.1 24.9L0 49.7L-43.1 24.9L-43.1 -24.9Z" fill="#303FA1"></path></g><g transform="translate(9 233)"><path d="M0 -39L33.8 -19.5L33.8 19.5L0 39L-33.8 19.5L-33.8 -19.5Z" fill="#303FA1"></path></g><g transform="translate(905 183)"><path d="M0 -39L33.8 -19.5L33.8 19.5L0 39L-33.8 19.5L-33.8 -19.5Z" fill="#303FA1"></path></g><g transform="translate(536 352)"><path d="M0 -46L39.8 -23L39.8 23L0 46L-39.8 23L-39.8 -23Z" fill="#303FA1"></path></g><g transform="translate(87 398)"><path d="M0 -39L33.8 -19.5L33.8 19.5L0 39L-33.8 19.5L-33.8 -19.5Z" fill="#303FA1"></path></g><g transform="translate(957 41)"><path d="M0 -41L35.5 -20.5L35.5 20.5L0 41L-35.5 20.5L-35.5 -20.5Z" fill="#303FA1"></path></g><g transform="translate(451 52)"><path d="M0 -39L33.8 -19.5L33.8 19.5L0 39L-33.8 19.5L-33.8 -19.5Z" fill="#303FA1"></path></g><g transform="translate(282 170)"><path d="M0 -44L38.1 -22L38.1 22L0 44L-38.1 22L-38.1 -22Z" fill="#303FA1"></path></g></g></svg>