<svg id="visual" viewBox="0 0 2566 540" width="2566" height="540" xmlns="http://www.w3.org/2000/svg" xmlns:xlink="http://www.w3.org/1999/xlink" version="1.1"><path d="M0 71L38.8 71C77.7 71 155.3 71 233.2 66.5C311 62 389 53 466.8 58.5C544.7 64 622.3 84 700 94C777.7 104 855.3 104 933 103C1010.7 102 1088.3 100 1166.2 96.3C1244 92.7 1322 87.3 1399.8 85.5C1477.7 83.7 1555.3 85.3 1633 77.2C1710.7 69 1788.3 51 1866 53.8C1943.7 56.7 2021.3 80.3 2099.2 84.8C2177 89.3 2255 74.7 2332.8 71C2410.7 67.3 2488.3 74.7 2527.2 78.3L2566 82L2566 0L2527.2 0C2488.3 0 2410.7 0 2332.8 0C2255 0 2177 0 2099.2 0C2021.3 0 1943.7 0 1866 0C1788.3 0 1710.7 0 1633 0C1555.3 0 1477.7 0 1399.8 0C1322 0 1244 0 1166.2 0C1088.3 0 1010.7 0 933 0C855.3 0 777.7 0 700 0C622.3 0 544.7 0 466.8 0C389 0 311 0 233.2 0C155.3 0 77.7 0 38.8 0L0 0Z" fill="#e6e6fa"></path><path d="M0 293L38.8 278.5C77.7 264 155.3 235 233.2 228.7C311 222.3 389 238.7 466.8 237.8C544.7 237 622.3 219 700 206.3C777.7 193.7 855.3 186.3 933 200.7C1010.7 215 1088.3 251 1166.2 267.2C1244 283.3 1322 279.7 1399.8 259C1477.7 238.3 1555.3 200.7 1633 188.2C1710.7 175.7 1788.3 188.3 1866 189.2C1943.7 190 2021.3 179 2099.2 185.3C2177 191.7 2255 215.3 2332.8 222.7C2410.7 230 2488.3 221 2527.2 216.5L2566 212L2566 80L2527.2 76.3C2488.3 72.7 2410.7 65.3 2332.8 69C2255 72.7 2177 87.3 2099.2 82.8C2021.3 78.3 1943.7 54.7 1866 51.8C1788.3 49 1710.7 67 1633 75.2C1555.3 83.3 1477.7 81.7 1399.8 83.5C1322 85.3 1244 90.7 1166.2 94.3C1088.3 98 1010.7 100 933 101C855.3 102 777.7 102 700 92C622.3 82 544.7 62 466.8 56.5C389 51 311 60 233.2 64.5C155.3 69 77.7 69 38.8 69L0 69Z" fill="#babae5"></path><path d="M0 406L38.8 398.8C77.7 391.7 155.3 377.3 233.2 374.7C311 372 389 381 466.8 386.3C544.7 391.7 622.3 393.3 700 390.7C777.7 388 855.3 381 933 378.3C1010.7 375.7 1088.3 377.3 1166.2 376.3C1244 375.3 1322 371.7 1399.8 364.5C1477.7 357.3 1555.3 346.7 1633 346.7C1710.7 346.7 1788.3 357.3 1866 359.2C1943.7 361 2021.3 354 2099.2 355C2177 356 2255 365 2332.8 365C2410.7 365 2488.3 356 2527.2 351.5L2566 347L2566 210L2527.2 214.5C2488.3 219 2410.7 228 2332.8 220.7C2255 213.3 2177 189.7 2099.2 183.3C2021.3 177 1943.7 188 1866 187.2C1788.3 186.3 1710.7 173.7 1633 186.2C1555.3 198.7 1477.7 236.3 1399.8 257C1322 277.7 1244 281.3 1166.2 265.2C1088.3 249 1010.7 213 933 198.7C855.3 184.3 777.7 191.7 700 204.3C622.3 217 544.7 235 466.8 235.8C389 236.7 311 220.3 233.2 226.7C155.3 233 77.7 262 38.8 276.5L0 291Z" fill="#8f8fcf"></path><path d="M0 460L38.8 459.2C77.7 458.3 155.3 456.7 233.2 459.3C311 462 389 469 466.8 472.5C544.7 476 622.3 476 700 472.5C777.7 469 855.3 462 933 460.2C1010.7 458.3 1088.3 461.7 1166.2 465.2C1244 468.7 1322 472.3 1399.8 472.3C1477.7 472.3 1555.3 468.7 1633 464.2C1710.7 459.7 1788.3 454.3 1866 456.2C1943.7 458 2021.3 467 2099.2 467C2177 467 2255 458 2332.8 456.2C2410.7 454.3 2488.3 459.7 2527.2 462.3L2566 465L2566 345L2527.2 349.5C2488.3 354 2410.7 363 2332.8 363C2255 363 2177 354 2099.2 353C2021.3 352 1943.7 359 1866 357.2C1788.3 355.3 1710.7 344.7 1633 344.7C1555.3 344.7 1477.7 355.3 1399.8 362.5C1322 369.7 1244 373.3 1166.2 374.3C1088.3 375.3 1010.7 373.7 933 376.3C855.3 379 777.7 386 700 388.7C622.3 391.3 544.7 389.7 466.8 384.3C389 379 311 370 233.2 372.7C155.3 375.3 77.7 389.7 38.8 396.8L0 404Z" fill="#6366b8"></path><path d="M0 541L38.8 541C77.7 541 155.3 541 233.2 541C311 541 389 541 466.8 541C544.7 541 622.3 541 700 541C777.7 541 855.3 541 933 541C1010.7 541 1088.3 541 1166.2 541C1244 541 1322 541 1399.8 541C1477.7 541 1555.3 541 1633 541C1710.7 541 1788.3 541 1866 541C1943.7 541 2021.3 541 2099.2 541C2177 541 2255 541 2332.8 541C2410.7 541 2488.3 541 2527.2 541L2566 541L2566 463L2527.2 460.3C2488.3 457.7 2410.7 452.3 2332.8 454.2C2255 456 2177 465 2099.2 465C2021.3 465 1943.7 456 1866 454.2C1788.3 452.3 1710.7 457.7 1633 462.2C1555.3 466.7 1477.7 470.3 1399.8 470.3C1322 470.3 1244 466.7 1166.2 463.2C1088.3 459.7 1010.7 456.3 933 458.2C855.3 460 777.7 467 700 470.5C622.3 474 544.7 474 466.8 470.5C389 467 311 460 233.2 457.3C155.3 454.7 77.7 456.3 38.8 457.2L0 458Z" fill="#303fa1"></path></svg>